# xmcd CD database file
#
# Track frame offsets:
#	187
#	24837
#	51130
#	65665
#	92465
#	146092
#	179542
#
# Disc length: 2679 seconds
#
# Revision: 0
# Processed by: cddbd v1.5.1PL2 Copyright (c) Steve Scherf et al.
# Submitted via: CDex 1.51
#
DISCID=5a0a7507
DTITLE=The Crusaders - The Crusaders Best Collection Disc2
DYEAR=1900
DGENRE=Jazz
TTITLE0=Put It Where You Want It
TTITLE1=Stomp And Buck Dance
TTITLE2=Greasy Spoon
TTITLE3=Scratch
TTITLE4=So Far Away
TTITLE5=Hard Tims
TTITLE6=So Far Away-Live
EXTD=
EXTT0=
EXTT1=
EXTT2=
EXTT3=
EXTT4=
EXTT5=
EXTT6=
PLAYORDER=
